# xmcd CD database file
#
# Track frame offsets:
#        150
#        8045
#        15201
#        21714
#        35186
#        46868
#        64350
#        72520
#        75145
#        94687
#        124587
#        133081
#        136839
#        149255
#        165481
#        174575
#        189273
#        200235
#        214839
#        227375
#        245147
#
# Disc length: 3728 seconds
#
# Revision: 0
# Processed by: cddbd v1.5.2PL0 Copyright (c) Steve Scherf et al.
# Submitted via: CUERipper 2.1.5
#
DISCID=240e8e15
DTITLE=戸崎裕子指揮　静岡児童合唱団 - 歓びの歌声　In Dulci Jubilo
DYEAR=1900
DGENRE=
TTITLE0=楽しい歓呼で
TTITLE1=みどり児ベツレヘムにうまる
TTITLE2=みどり児ベツレヘムにうまる
TTITLE3=おお、大いなる神秘よ
TTITLE4=いと聖なるマリア
TTITLE5=今日キリスト生まれぬ
TTITLE6=しもべらよ、ともに歌え
TTITLE7=三声のミサ曲
TTITLE8=三声のミサ曲
TTITLE9=三声のミサ曲
TTITLE10=三声のミサ曲
TTITLE11=三声のミサ曲
TTITLE12=三声のミサ曲
TTITLE13=喜びの都の女王
TTITLE14=なべてうるわしマリアよ
TTITLE15=ああ、まことの御からだ
TTITLE16=キリエ
TTITLE17=アニュス・デイ
TTITLE18=マリア、恩寵の御母
TTITLE19=ああ、まことの御からだ
TTITLE20=グローリア
EXTD=
EXTT0=
EXTT1=
EXTT2=
EXTT3=
EXTT4=
EXTT5=
EXTT6=
EXTT7=
EXTT8=
EXTT9=
EXTT10=
EXTT11=
EXTT12=
EXTT13=
EXTT14=
EXTT15=
EXTT16=
EXTT17=
EXTT18=
EXTT19=
EXTT20=
PLAYORDER=
